<?xml version="1.0" encoding="iso-8859-1"?>
<!-- Generator: Adobe Illustrator 19.0.0, SVG Export Plug-In . SVG Version: 6.00 Build 0)  -->
<svg version="1.1" id="Capa_1" xmlns="http://www.w3.org/2000/svg" xmlns:xlink="http://www.w3.org/1999/xlink" x="0px" y="0px"
	 viewBox="0 0 512.001 512.001" style="enable-background:new 0 0 512.001 512.001;" xml:space="preserve">
<g>
	<g transform="translate(1 1)">
		<g>
			<g>
				<path style="fill:#C52828;" d="M16.067,229.4H127c4.713,0,8.533,3.821,8.533,8.533v59.733c0,4.713-3.82,8.533-8.533,8.533
					H16.067c-4.713,0-8.533-3.82-8.533-8.533v-59.733C7.534,233.221,11.354,229.4,16.067,229.4z"/>
				<path style="fill:#C52828;" d="M16.067,7.533H127c4.713,0,8.533,3.821,8.533,8.533V75.8c0,4.713-3.82,8.533-8.533,8.533H16.067
					c-4.713,0-8.533-3.82-8.533-8.533V16.067C7.534,11.354,11.354,7.533,16.067,7.533z"/>
				<path style="fill:#C52828;" d="M178.2,7.533h153.6c4.713,0,8.533,3.821,8.533,8.533V75.8c0,4.713-3.82,8.533-8.533,8.533H178.2
					c-4.713,0-8.533-3.82-8.533-8.533V16.067C169.667,11.354,173.487,7.533,178.2,7.533z"/>
			</g>
			<path style="fill:#F44335;" d="M237.934,130.669V127c-0.014-4.707-3.826-8.52-8.533-8.533H16.067
				c-4.707,0.014-8.52,3.826-8.533,8.533v59.733c0.014,4.707,3.826,8.52,8.533,8.533h173.056l6.144-42.667L237.934,130.669z"/>
			<path style="fill:#C52828;" d="M502.467,127v59.733c-0.014,4.707-3.826,8.519-8.533,8.533H323.267l-8.533-51.2l-42.667-8.533V127
				c0.014-4.707,3.826-8.519,8.533-8.533h213.333C498.641,118.481,502.453,122.293,502.467,127z"/>
			<path style="fill:#F44335;" d="M141.251,340.333l-3.157,30.549l-4.864,46.251H16.067c-4.707-0.014-8.519-3.826-8.533-8.533
				v-59.733c0.014-4.707,3.826-8.519,8.533-8.533H141.251z"/>
			<g>
				<path style="fill:#C52828;" d="M502.467,348.867V408.6c-0.014,4.707-3.826,8.519-8.533,8.533H386.67l0.939-76.8h106.325
					C498.641,340.347,502.453,344.16,502.467,348.867z"/>
				<path style="fill:#C52828;" d="M383,7.533h110.933c4.713,0,8.533,3.821,8.533,8.533V75.8c0,4.713-3.821,8.533-8.533,8.533H383
					c-4.713,0-8.533-3.82-8.533-8.533V16.067C374.467,11.354,378.288,7.533,383,7.533z"/>
			</g>
		</g>
		<path style="fill:none;stroke:#000000;stroke-width:2;stroke-linecap:round;stroke-linejoin:round;" d="M262.936,306.2h-7.68"/>
		<g>
			<path style="fill:#C52828;" d="M383,229.4h110.933c4.713,0,8.533,3.821,8.533,8.533v59.733c0,4.713-3.821,8.533-8.533,8.533H383
				c-4.713,0-8.533-3.82-8.533-8.533v-59.733C374.467,233.221,378.288,229.4,383,229.4z"/>
			<g>
				<path style="fill:#F44335;" d="M16.067,229.4H101.4c4.713,0,8.533,3.821,8.533,8.533v59.733c0,4.713-3.82,8.533-8.533,8.533
					H16.067c-4.713,0-8.533-3.82-8.533-8.533v-59.733C7.534,233.221,11.354,229.4,16.067,229.4z"/>
				<path style="fill:#F44335;" d="M16.067,7.533H101.4c4.713,0,8.533,3.821,8.533,8.533V75.8c0,4.713-3.82,8.533-8.533,8.533
					H16.067c-4.713,0-8.533-3.82-8.533-8.533V16.067C7.534,11.354,11.354,7.533,16.067,7.533z"/>
				<path style="fill:#F44335;" d="M178.2,7.533h128c4.713,0,8.533,3.821,8.533,8.533V75.8c0,4.713-3.821,8.533-8.533,8.533h-128
					c-4.713,0-8.533-3.82-8.533-8.533V16.067C169.667,11.354,173.487,7.533,178.2,7.533z"/>
				<path style="fill:#F44335;" d="M476.867,127v59.733c-0.014,4.707-3.826,8.519-8.533,8.533H272.067V127
					c0.014-4.707,3.826-8.519,8.533-8.533h187.733C473.041,118.481,476.853,122.293,476.867,127z"/>
				<path style="fill:#F44335;" d="M476.867,348.867V408.6c-0.014,4.707-3.826,8.519-8.533,8.533H386.67l0.939-76.8h80.725
					C473.041,340.347,476.853,344.16,476.867,348.867z"/>
				<path style="fill:#F44335;" d="M383,7.533h85.333c4.713,0,8.533,3.821,8.533,8.533V75.8c0,4.713-3.821,8.533-8.533,8.533H383
					c-4.713,0-8.533-3.82-8.533-8.533V16.067C374.467,11.354,378.288,7.533,383,7.533z"/>
				<path style="fill:#F44335;" d="M383,229.4h85.333c4.713,0,8.533,3.821,8.533,8.533v59.733c0,4.713-3.821,8.533-8.533,8.533H383
					c-4.713,0-8.533-3.82-8.533-8.533v-59.733C374.467,233.221,378.288,229.4,383,229.4z"/>
			</g>
			<path style="fill:#FFB301;" d="M391.278,389.4c-0.451,9.392-1.998,18.7-4.608,27.733c-5.149,18.383-15.243,35-29.184,48.043
				c-14.006,13.244-30.759,23.238-49.067,29.269h-0.085c-15.426,5.333-31.636,8.044-47.957,8.021
				c-4.217,0.016-8.432-0.184-12.629-0.597c-1.024,0-2.133-0.171-3.157-0.256c-54.016-5.547-97.963-39.68-111.36-84.48
				c-2.841-9.321-4.279-19.013-4.267-28.757c0.028-15.715,3.74-31.205,10.837-45.227c0.427-0.939,0.939-1.877,1.451-2.816
				c4.112-8.035,9.341-15.447,15.531-22.016c5.7-4.99,10.243-11.164,13.312-18.091c0.442-1.251,0.784-2.535,1.024-3.84
				c0.734-4.374,0.232-8.867-1.451-12.971c-4.604-9.7-12.716-17.294-22.699-21.248c-0.853-0.341-5.888-2.048-11.435-3.669
				c-7.424-2.133-15.872-4.096-16.981-2.56c4.009-7.279,9.866-13.372,16.981-17.664c8.565-5.184,18.254-8.229,28.245-8.875
				c0.683-0.085,1.451-0.085,2.219-0.171c3.785-0.123,7.574-0.037,11.349,0.256c0.279-0.071,0.566-0.099,0.853-0.085h13.397
				c-2.606-11.178-3.441-22.696-2.475-34.133c1.031-29.667,20.553-55.503,48.811-64.597c1.707-0.602,3.445-1.114,5.205-1.536
				c1.878-0.501,3.788-0.872,5.717-1.109c7.677-1.266,15.5-1.381,23.211-0.341c5.353,0.543,10.659,1.485,15.872,2.816
				c1.451,0.341,18.859,6.827,19.797,6.827c-18.517,16.043-18.944,37.888-11.179,57.941c4.995,12.421,12.356,23.753,21.675,33.365
				L319,229.4c7.168,7.509,14.421,15.019,21.333,22.784c11.608,12.592,21.848,26.38,30.549,41.131
				c8.052,14.678,13.699,30.553,16.725,47.019c1.751,10.024,2.947,20.137,3.584,30.293
				C391.605,376.877,391.633,383.146,391.278,389.4z"/>
			<path style="fill:#FEC108;" d="M365.678,389.4c-0.451,9.392-1.998,18.7-4.608,27.733c-5.149,18.383-15.243,35-29.184,48.043
				c-14.005,13.244-30.759,23.238-49.067,29.269h-0.085c-11.303,3.939-23.058,6.434-34.987,7.424c-1.024,0-2.133-0.171-3.157-0.256
				c-54.016-5.547-97.963-39.68-111.36-84.48c-2.841-9.321-4.279-19.013-4.267-28.757c0.028-15.715,3.74-31.205,10.837-45.227
				c0.427-0.939,0.939-1.877,1.451-2.816c4.112-8.035,9.341-15.447,15.531-22.016c5.7-4.99,10.243-11.164,13.312-18.091
				c0.442-1.251,0.784-2.535,1.024-3.84c0.734-4.374,0.232-8.867-1.451-12.971c-4.604-9.7-12.716-17.294-22.699-21.248
				c-0.853-0.341-5.888-2.048-11.435-3.669c-7.424-2.133-15.872-4.096-16.981-2.56c4.009-7.279,9.866-13.372,16.981-17.664
				c8.565-5.184,18.254-8.229,28.245-8.875h2.219v-0.171c3.785-0.123,7.574-0.037,11.349,0.256c0.279-0.071,0.566-0.099,0.853-0.085
				h13.397c-2.606-11.178-3.441-22.696-2.475-34.133c1.031-29.667,20.553-55.503,48.811-64.597c1.707-0.602,3.445-1.114,5.205-1.536
				c1.878-0.501,3.788-0.872,5.717-1.109c4.546,0.512,9.051,1.339,13.483,2.475c1.451,0.341,18.859,6.827,19.797,6.827
				c-18.517,16.043-18.944,37.888-11.179,57.941c4.995,12.421,12.356,23.753,21.675,33.365l0.768,0.768
				c7.168,7.509,14.421,15.019,21.333,22.784c11.608,12.592,21.848,26.38,30.549,41.131c8.052,14.678,13.699,30.553,16.725,47.019
				c1.751,10.024,2.947,20.137,3.584,30.293C366.005,376.877,366.033,383.146,365.678,389.4z"/>
			<path style="fill:#F44335;" d="M308.419,494.445h-0.085c-15.426,5.333-31.636,8.044-47.957,8.021
				c-5.274,0.018-10.545-0.267-15.787-0.853v-0.341c-29.952-13.483-61.867-37.376-62.208-69.035
				c-0.019-5.13,0.787-10.23,2.389-15.104c3.457-10.487,9.819-19.779,18.347-26.795c9.643-8.107,21.419-13.909,31.061-22.101
				c1.28-1.109,2.56-2.218,3.755-3.328c7.506-6.709,12.902-15.455,15.531-25.173c2.046-11.054,2.648-22.327,1.792-33.536
				c-0.085-1.963-0.085-3.84-0.085-5.803c0,0.682,4.949,3.499,5.461,3.925c0.768,0.597,1.536,1.195,2.304,1.877
				c3.737,2.913,7.246,6.109,10.496,9.557c12.048,12.038,19.581,27.859,21.333,44.8c1.365,17.92-8.192,33.877-18.175,49.067
				c18.175,12.971,52.139,3.84,52.139-17.92c0,1.792,4.352,6.144,5.291,7.765c3.281,5.558,5.888,11.488,7.765,17.664
				c0.419,1.084,0.761,2.196,1.024,3.328C350.659,450.669,334.616,476.525,308.419,494.445z"/>
			<path style="fill:#F29C1F;" d="M308.334,494.445c-0.085,0.085-0.256,0.171-0.341,0.256"/>
		</g>
	</g>
	<g>
		<path d="M17.067,93.867H128c9.421-0.012,17.054-7.646,17.067-17.067V17.067C145.055,7.646,137.421,0.012,128,0H17.067
			C7.646,0.012,0.013,7.646,0,17.067V76.8C0.013,86.221,7.646,93.854,17.067,93.867z M17.067,17.067H128l0.017,59.733H17.067V17.067
			z"/>
		<path d="M59.734,34.133H42.667c-4.713,0-8.533,3.821-8.533,8.533s3.821,8.533,8.533,8.533h17.067c4.713,0,8.533-3.821,8.533-8.533
			S64.446,34.133,59.734,34.133z"/>
		<path d="M332.8,93.867c9.421-0.012,17.054-7.646,17.067-17.067V17.067C349.855,7.646,342.221,0.012,332.8,0H179.2
			c-9.421,0.012-17.054,7.646-17.067,17.067V76.8c0.012,9.421,7.646,17.054,17.067,17.067H332.8z M179.2,17.067h153.6l0.017,59.733
			H179.2V17.067z"/>
		<path d="M247.467,34.133H204.8c-4.713,0-8.533,3.821-8.533,8.533s3.821,8.533,8.533,8.533h42.667c4.713,0,8.533-3.821,8.533-8.533
			S252.18,34.133,247.467,34.133z"/>
		<path d="M85.334,145.067H42.667c-4.713,0-8.533,3.82-8.533,8.533s3.821,8.533,8.533,8.533h42.667c4.713,0,8.533-3.821,8.533-8.533
			S90.046,145.067,85.334,145.067z"/>
		<path d="M494.934,110.933H281.6c-6.109,0.015-11.727,3.348-14.67,8.701c-7.021-0.391-14.063,0.093-20.964,1.441
			c-2.734-6.155-8.831-10.128-15.566-10.142H17.067C7.646,110.946,0.013,118.579,0,128v59.733
			c0.012,9.421,7.646,17.054,17.067,17.067h164.302c-0.061,5.707,0.29,11.41,1.049,17.067H179.2
			c-0.51,0.001-1.019,0.032-1.525,0.091c-12.6-1.07-25.273,0.884-36.966,5.699c-3.208-3.665-7.838-5.774-12.709-5.79H17.067
			C7.646,221.879,0.013,229.513,0,238.933v59.733c0.012,9.421,7.646,17.054,17.067,17.067H128
			c9.421-0.012,17.054-7.646,17.067-17.067v-27.402c7.714,3.083,14.015,8.91,17.692,16.36c1.079,2.581,1.417,5.412,0.975,8.175
			c-0.171,0.906-0.411,1.797-0.717,2.667c-2.561,5.458-6.227,10.324-10.767,14.292l-0.65,0.675
			c-5.525,5.864-10.332,12.366-14.319,19.367H17.067C7.646,332.812,0.013,340.446,0,349.867V409.6
			c0.012,9.421,7.646,17.054,17.067,17.067h111.104c16.507,45.268,62.43,78.881,116.454,84.425
			c5.561,0.621,11.154,0.925,16.75,0.908c16.684,0.019,33.261-2.674,49.082-7.972c0.496-0.099,0.983-0.243,1.453-0.431l0.215-0.064
			c19.488-6.448,37.324-17.092,52.25-31.183c13.324-12.631,23.383-28.307,29.311-45.683h101.247
			c9.421-0.012,17.054-7.646,17.067-17.067v-59.733c-0.012-9.421-7.646-17.054-17.067-17.067h-99.545
			c-1.369-5.903-2.935-11.615-4.791-17.067h104.336c9.421-0.012,17.054-7.646,17.067-17.067v-59.733
			c-0.012-9.421-7.646-17.054-17.067-17.067H384c-9.421,0.012-17.054,7.646-17.067,17.067v32.175
			c-5.365-7.331-11.616-15.025-19.225-23.6c-6.059-6.808-12.375-13.417-18.675-20.008l-3.65-3.783
			c-5.456-5.715-10.204-12.066-14.141-18.917h183.691c9.421-0.012,17.054-7.646,17.067-17.067V128
			C511.988,118.579,504.354,110.946,494.934,110.933z M17.067,128h208.125c-23.193,11.611-39.083,34.007-42.38,59.733H17.067V128z
			 M17.067,298.667v-59.733l105.605,0.325c-4.132,3.808-7.635,8.246-10.38,13.15c-1.956,3.085-1.73,7.073,0.562,9.918
			c2.292,2.844,6.141,3.913,9.572,2.657c1.877,0.259,3.738,0.623,5.575,1.09v32.594H17.067z M17.067,349.867h111.981
			c-4.963,12.584-7.545,25.981-7.614,39.508c0.02,6.789,0.683,13.561,1.98,20.225H17.067V349.867z M248.706,494.313
			c-13.708-6.213-56.433-28.245-56.789-61.08c-0.015-4.261,0.657-8.496,1.992-12.542c2.963-8.941,8.408-16.854,15.7-22.816
			c4.62-3.717,9.462-7.148,14.5-10.275c5.797-3.608,11.356-7.586,16.642-11.908c1.367-1.175,2.725-2.358,4.075-3.608
			c8.704-7.837,14.938-18.038,17.942-29.359c1.684-7.654,2.445-15.482,2.267-23.317c1.067,1.017,2.133,2.083,3.183,3.191
			c10.686,10.639,17.406,24.618,19.042,39.608c1.15,15.033-7.292,29.267-16.8,43.733c-2.518,3.832-1.557,8.969,2.175,11.633
			c14.298,9.239,32.447,10.123,47.575,2.317c4.146-2.081,7.857-4.935,10.933-8.408c1.46,3.142,2.688,6.387,3.675,9.708
			c0.301,0.787,0.546,1.595,0.733,2.417c8.183,31.481-14.68,53.378-29.869,64.029c-14.267,4.852-29.237,7.317-44.306,7.296
			C256.919,494.933,252.783,494.704,248.706,494.313z M494.934,409.6h-96.579c1.251-6.18,2.065-12.439,2.437-18.733
			c0.381-6.601,0.354-13.219-0.083-19.817c-0.513-7.565-1.298-14.481-2.219-21.183h96.444V409.6z M384,238.933h110.933l0.017,59.733
			H384V238.933z M316.7,239.3c6.158,6.433,12.333,12.9,18.25,19.55c11.227,12.11,21.112,25.398,29.483,39.633
			c7.611,13.841,12.938,28.82,15.775,44.358c1.699,9.714,2.856,19.516,3.467,29.358c0.393,5.907,0.418,11.832,0.075,17.742
			c-0.419,8.771-1.862,17.464-4.3,25.9c-4.764,16.895-14.054,32.168-26.867,44.167c-1.269,1.214-2.705,2.28-4.038,3.44
			c6.193-13.798,7.454-29.306,3.571-43.923c-0.286-1.288-0.668-2.552-1.142-3.783c-2.06-6.834-4.936-13.396-8.567-19.541
			c-0.8-1.251-1.688-2.443-2.658-3.567c-0.608-0.742-1.325-1.55-1.817-2.275c-1.168-4.093-5.174-6.699-9.389-6.109
			c-4.215,0.59-7.352,4.195-7.353,8.451c-0.397,5.355-3.808,10.017-8.792,12.017c-6.952,3.434-14.904,4.268-22.417,2.35
			c9.563-13.441,14.574-29.59,14.3-46.083c-1.82-18.943-10.186-36.659-23.658-50.1c-3.406-3.63-7.09-6.99-11.017-10.05
			c-0.917-0.825-1.842-1.55-2.55-2.1c-0.258-0.208-1.084-0.783-2.183-1.475c-0.675-0.417-1.558-0.95-2.233-1.417
			c-2.325-2.709-6.091-3.684-9.439-2.444c-3.348,1.24-5.57,4.432-5.57,8.002c0,2.092,0,4.1,0.092,5.992l0.083,3.267
			c0.669,9.396,0.117,18.838-1.642,28.092c-2.24,8.081-6.769,15.342-13.042,20.908c-1.117,1.042-2.325,2.075-3.475,3.075
			c-4.726,3.831-9.689,7.36-14.858,10.567c-5.624,3.509-11.028,7.358-16.183,11.525c-9.737,8.018-16.999,18.635-20.942,30.617
			c-1.892,5.771-2.843,11.81-2.817,17.883c0.702,16.944,7.902,32.966,20.104,44.743c-24.977-13.176-43.832-35.57-52.561-62.426
			c-2.591-8.514-3.903-17.367-3.892-26.267c0.068-14.5,3.518-28.784,10.075-41.717c0.292-0.642,0.65-1.283,1.225-2.342
			c3.869-7.572,8.824-14.537,14.708-20.674c6.335-5.682,11.328-12.701,14.617-20.55c0.611-1.72,1.082-3.487,1.408-5.283
			c0.992-5.917,0.32-11.993-1.941-17.55c-5.442-11.89-15.277-21.211-27.442-26.008c-1.4-0.567-6.858-2.375-12.258-3.95
			c-1.092-0.317-2.142-0.608-3.158-0.883c1.667-1.428,3.439-2.729,5.3-3.892c11.074-6.41,23.929-9.053,36.634-7.533
			c0.126,0.007,0.239-0.028,0.363-0.026c0.109,0.004,0.21,0.051,0.32,0.051c0.401,0.001,0.802-0.027,1.2-0.084h13.05
			c0.21,0,0.386-0.104,0.592-0.119c0.441,0.004,0.881-0.029,1.316-0.097c0.249-0.057,0.431-0.226,0.67-0.303
			c1.042-0.365,2.015-0.902,2.879-1.589c1.255-1.039,2.159-2.439,2.59-4.011c0.173-0.55,0.287-1.117,0.341-1.691
			c0.022-0.251,0.146-0.467,0.146-0.723c-0.044-0.319-0.108-0.636-0.191-0.947c0.011-0.321,0.002-0.642-0.026-0.961
			c-2.401-10.302-3.174-20.917-2.292-31.458c0.865-26.271,18.099-49.183,43.1-57.3c1.484-0.522,2.995-0.967,4.525-1.333
			c8.519-2.031,17.344-2.446,26.017-1.225c4.87,0.5,9.696,1.355,14.442,2.558c0.892,0.267,3.775,1.308,7.008,2.467
			c-11.207,17.038-12.766,38.673-4.117,57.142l0.082,0.181l0.064,0.142c5.424,13.401,13.388,25.626,23.454,36.002L316.7,239.3z
			 M494.934,187.733H303.653c-5.763-15.143-1.507-32.273,10.673-42.958c2.464-2.14,3.492-5.496,2.651-8.649
			c-0.842-3.153-3.407-5.55-6.609-6.176c-1.01-0.295-3.201-1.065-5.684-1.95h190.251V187.733z"/>
		<path d="M85.334,366.933H42.667c-4.713,0-8.533,3.821-8.533,8.533c0,4.713,3.821,8.533,8.533,8.533h42.667
			c4.713,0,8.533-3.821,8.533-8.533C93.867,370.754,90.046,366.933,85.334,366.933z"/>
		<path d="M494.934,0H384c-9.421,0.012-17.054,7.646-17.067,17.067V76.8c0.012,9.421,7.646,17.054,17.067,17.067h110.933
			c9.421-0.012,17.054-7.646,17.067-17.067V17.067C511.988,7.646,504.354,0.012,494.934,0z M384,76.8V17.067h110.933l0.017,59.733
			H384z"/>
		<path d="M469.334,34.133H460.8c-4.713,0-8.533,3.821-8.533,8.533s3.82,8.533,8.533,8.533h8.533c4.713,0,8.533-3.821,8.533-8.533
			S474.046,34.133,469.334,34.133z"/>
		<path d="M59.734,256H42.667c-4.713,0-8.533,3.821-8.533,8.533s3.821,8.533,8.533,8.533h17.067c4.713,0,8.533-3.82,8.533-8.533
			S64.446,256,59.734,256z"/>
		<path d="M469.334,256H460.8c-4.713,0-8.533,3.821-8.533,8.533s3.82,8.533,8.533,8.533h8.533c4.713,0,8.533-3.82,8.533-8.533
			S474.046,256,469.334,256z"/>
	</g>
</g>
<g>
</g>
<g>
</g>
<g>
</g>
<g>
</g>
<g>
</g>
<g>
</g>
<g>
</g>
<g>
</g>
<g>
</g>
<g>
</g>
<g>
</g>
<g>
</g>
<g>
</g>
<g>
</g>
<g>
</g>
</svg>
